<svg
  version="1.1"
  viewBox="0 0 1200 1200"
  xmlns="http://www.w3.org/2000/svg"
  fill="#3f3f3f"
>
  <path
    d="m534.19 381.01c2.6641-14.652 0.61328-31.766 7.5469-37.02 47.27-35.953 28.738-86.219 30.562-131.38 2.0742-51.336 0.48047-102.83 0.48047-154.27 5.3867-0.14453 10.766-0.30078 16.152-0.44531v66.863c0 42-0.34766 84.012 0.097656 126.01 0.33594 31.559-8.2578 64.992 27.551 87.457 9 5.6641 8.2695 26.809 13.129 44.941 116.04 20.82 211.96 78.434 274.27 184.84 47.473 81.035 60.289 168.98 43.836 260.2-31.262 173.34-197.57 306.31-373.87 301.8-177.55-4.5703-335.96-139.95-361.06-311.84-27.598-189.21 74.473-387.7 321.3-437.15zm-34.055 444.02h150.04v-149.05h-150.04v149.05zm306.44-137.73c-46.441-4.4531-88.812-8.4961-132.74-12.707v152.64c45.191-4.4141 87.457-8.543 132.74-12.961v-126.97zm-153.75-33.254c-3.6836-38.363-5.125-71.137-10.98-103.09-1.6562-9.0586-15.492-21.383-24.863-22.488-26.438-3.1328-53.723-3.2656-80.125-0.17969-9.6719 1.1289-24.035 13.57-25.621 22.691-5.7461 32.844-6.9102 66.469-10.105 103.07h106.34c13.156 0.003906 26.32 0.003906 45.352 0.003906zm6.7812 323.44c127.07-19.367 127.33-9.2266 141.64-143.26-42.828 4.2109-84.926 8.3516-128.16 12.602-4.5039 43.75-8.75 84.695-13.477 130.66zm-301.48-143.3c19.117 127.6 21.48 130.08 134.24 140.95-4.2227-43.273-8.3398-85.586-12.602-129.25-41.41-3.9844-79.496-7.6328-121.64-11.699zm301.2-298.51c4.8711 42.289 9.2539 80.16 13.812 119.66 43.848 3.7578 84.961 7.2852 126.79 10.871-12.781-116.78-13.719-118.1-140.61-130.54zm-165.98-2.6523c-112.37 11.688-136.69 38.102-125.84 133.52 37.789-3.9844 75.562-7.9922 112.99-11.941 4.5234-42.875 8.4375-79.832 12.852-121.58zm25.152-25.453h113.99c-4.4414-80.242-9.2148-87.73-54.359-87.539-51.289 0.21484-56.867 8.1719-59.629 87.539zm-183.98 186.67c-90.098 8.6758-94.57 12.613-87.277 75.852 3.3477 29.102 34.453 40.391 87.277 30.781v-106.63zm576.53 13.262c-27.504-5.2305-54.395-10.309-82.391-15.613v110.38c81.84 9.3984 90.961-0.55078 82.391-94.762zm-391.64 297.36c11.219 85.668 14.16 89.617 72.684 83.27 56.93-6.1562 25.441-53.988 47.219-83.27h-119.9zm243.83-23.305c-109.39 11.855-121.15 21.828-116.38 98.855 76.344-11.531 91.152-24.117 116.38-98.855zm-367.92-448.5c105.11-11.207 120.91-25.777 110.83-101.26-63.648 4.2852-97.969 41.152-110.83 101.26zm250.87-103.38c-0.81641 81.336 24.648 101.77 114.88 95.293-12.262-61.082-52.223-89.582-114.88-95.293zm256.98 386.83c-85.754 14.387-91.262 21.637-94.691 120.21 74.652-23.867 92.891-46.414 94.691-120.21zm0.73047-133.58c-3.4922-63.758-38.746-95.23-94.656-108.71 15.062 110.59 2.0664 99.008 94.656 108.71zm-598.82-125.8c3.1094 3.0703 6.2266 6.1211 9.3359 9.168 42.574-11.328 76.441-31.008 78-91.703-32.625 30.84-59.973 56.676-87.336 82.535zm553.79 387.89c-57.156 7.4883-80.062 34.512-79.188 84 24-25.465 48.012-50.914 79.188-84zm-551.99 8.7109c24.938 24.574 49.871 49.176 83.27 82.094-6.1445-60.023-33.516-82.188-83.27-82.094zm528.01-382.07c5.1602-4.4766 10.32-8.9531 15.504-13.43-23.34-26.195-46.68-52.379-70.031-78.562-5.6523 5.5078-11.27 11.027-16.906 16.535 23.805 25.164 47.602 50.316 71.434 75.457zm-214.54-209.62c-20.281-12.047-31.164-23.734-40.188-22.453-9.3359 1.3438-16.824 15.312-25.117 23.762 8.2578 6.5742 16.32 18.145 24.793 18.422 9.9258 0.33594 20.172-9.1797 40.512-19.73z"
    fill-rule="evenodd"></path>
</svg>